<svg width="20" height="22" viewBox="0 0 20 22" fill="none" xmlns="http://www.w3.org/2000/svg">
<path fill-rule="evenodd" clip-rule="evenodd" d="M18.3333 18.5719C18.3333 19.0979 17.9214 19.5243 17.4134 19.5243H2.58648C2.07834 19.5243 1.66663 19.0979 1.66663 18.5719V3.21977C1.66663 2.6937 2.07834 2.26733 2.58648 2.26733H17.4134C17.9214 2.26733 18.3333 2.6937 18.3333 3.21977V18.5719ZM13.1663 12.8415V19.5243H10.5688V12.8415H8.39682V10.2371H10.5688V8.31642C10.5688 6.08744 11.8835 4.87373 13.804 4.87373C14.7238 4.87373 15.5144 4.94464 15.7449 4.97639V7.30574L14.4129 7.30635C13.3686 7.30635 13.1663 7.82022 13.1663 8.57426V10.2371H15.6571L15.3328 12.8415H13.1663Z" fill="#365899"/>
</svg>
