<svg width="20" height="21" viewBox="0 0 20 21" fill="none" xmlns="http://www.w3.org/2000/svg">
<path d="M1.04769 14.8833L4.48923 12.2515C4.29245 11.6538 4.18604 11.0144 4.18604 10.3493C4.18604 9.68419 4.29245 9.04477 4.48923 8.44708L1.04769 5.81531C0.376462 7.17998 0 8.71853 0 10.3493C0 11.98 0.376462 13.5186 1.04769 14.8833Z" fill="#FBBC05"/>
<path d="M4.48915 8.44704C5.28319 6.03527 7.54873 4.30274 10.2325 4.30274C11.6743 4.30274 12.9766 4.81437 13.9999 5.65158L16.9766 2.67484C15.1627 1.09344 12.8371 0.116699 10.2325 0.116699C6.1888 0.116699 2.71201 2.4314 1.04761 5.81527L4.48915 8.44704Z" fill="#EA4335"/>
<path d="M10.2325 20.5817C6.18772 20.5817 2.71012 18.2658 1.04626 14.8804L4.4864 12.2429C5.27792 14.6591 7.54562 16.3957 10.2325 16.3957C11.5473 16.3957 12.7122 16.0861 13.6348 15.5039L16.902 18.0333C15.1135 19.6963 12.7283 20.5817 10.2325 20.5817Z" fill="#34A853"/>
<path d="M10.2327 8.48877H19.7675C19.9071 9.09342 20.0001 9.74458 20.0001 10.3492C20.0001 13.6843 18.78 16.2874 16.9022 18.0334L13.6349 15.5039C14.7032 14.8297 15.4465 13.79 15.721 12.4423H10.2327V8.48877Z" fill="#4285F4"/>
</svg>
