<svg width="36" height="36" viewBox="0 0 36 36" fill="none" xmlns="http://www.w3.org/2000/svg">
<path d="M22.5 31.5H13.5M22.5 31.5V18.9C22.5 18.6613 22.4052 18.4324 22.2364 18.2636C22.0676 18.0948 21.8387 18 21.6 18H14.4C14.1613 18 13.9324 18.0948 13.7636 18.2636C13.5948 18.4324 13.5 18.6613 13.5 18.9V31.5M22.5 31.5H30.6C30.8387 31.5 31.0676 31.4052 31.2364 31.2364C31.4052 31.0676 31.5 30.8387 31.5 30.6V27.15C31.5 26.9113 31.4052 26.6824 31.2364 26.5136C31.0676 26.3448 30.8387 26.25 30.6 26.25H23.4C23.1613 26.25 22.9324 26.3448 22.7636 26.5136C22.5948 26.6824 22.5 26.9113 22.5 27.15V31.5ZM13.5 31.5V24.15C13.5 23.9113 13.4052 23.6824 13.2364 23.5136C13.0676 23.3448 12.8387 23.25 12.6 23.25H5.4C5.16131 23.25 4.93239 23.3448 4.7636 23.5136C4.59482 23.6824 4.5 23.9113 4.5 24.15V30.6C4.5 30.8387 4.59482 31.0676 4.7636 31.2364C4.93239 31.4052 5.16131 31.5 5.4 31.5H13.5ZM16.209 7.66952L17.5725 4.77902C17.6093 4.69639 17.6693 4.6262 17.7452 4.57694C17.821 4.52768 17.9095 4.50146 18 4.50146C18.0905 4.50146 18.179 4.52768 18.2548 4.57694C18.3307 4.6262 18.3907 4.69639 18.4275 4.77902L19.7925 7.66952L22.8405 8.13602C23.232 8.19602 23.388 8.70002 23.1045 8.98802L20.8995 11.238L21.42 14.415C21.486 14.823 21.078 15.135 20.727 14.9415L18 13.4415L15.273 14.9415C14.9235 15.1335 14.514 14.823 14.58 14.415L15.1005 11.238L12.8955 8.98802C12.6105 8.70002 12.768 8.19602 13.158 8.13602L16.209 7.66952Z" stroke="#F9FAFB" stroke-width="1.5" stroke-linecap="round" stroke-linejoin="round"/>
</svg>
