<svg width="9" height="9" viewBox="0 0 9 9" fill="none" xmlns="http://www.w3.org/2000/svg">
<ellipse cx="4.399" cy="4.45105" rx="4.04695" ry="4.09558" fill="#3B82F6"/>
<g clip-path="url(#clip0_614_2262)">
<path d="M5.37396 2.96765C4.2994 2.33979 3.0184 2.04245 2.64958 2.68894C2.28076 3.33543 3.17571 4.30947 4.25028 4.93732C5.32506 5.5653 6.60584 5.86252 6.97466 5.21603C7.34348 4.56954 6.44874 3.59563 5.37396 2.96765ZM3.05189 4.51083L2.67733 5.16739C2.90751 5.38913 3.18049 5.60203 3.4748 5.79121L3.84936 5.13465C3.56451 4.95289 3.29747 4.74401 3.05189 4.51083ZM4.28199 5.38714L3.90743 6.0437C4.20528 6.20272 4.51758 6.33232 4.83999 6.43072L5.21456 5.77416C4.89214 5.67576 4.57984 5.54616 4.28199 5.38714ZM5.72697 5.8868L5.35241 6.54336C5.83615 6.60569 6.23302 6.51602 6.41281 6.20087L6.78738 5.54431C6.60759 5.85946 6.21071 5.94913 5.72697 5.8868ZM2.32486 4.7744L2.69942 4.11784C2.40443 3.72517 2.28264 3.33215 2.4623 3.01722L2.08774 3.67378C1.90807 3.9887 2.02986 4.38172 2.32486 4.7744Z" fill="white"/>
</g>
<defs>
<clipPath id="clip0_614_2262">
<rect width="6.71572" height="6.46083" fill="white" transform="matrix(0.86342 0.504486 -0.495527 0.868593 3.20142 0)"/>
</clipPath>
</defs>
</svg>
