<svg width="20" height="22" viewBox="0 0 20 22" fill="none" xmlns="http://www.w3.org/2000/svg">
<g clip-path="url(#clip0_564_3048)">
<rect y="0.577026" width="20" height="20.7083" fill="#111111"/>
<path d="M14.9842 8.48566C14.6392 8.48566 14.2976 8.41531 13.979 8.27863C13.6603 8.14195 13.3707 7.94162 13.1268 7.68906C12.8828 7.43651 12.6893 7.13668 12.5573 6.8067C12.4253 6.47671 12.3574 6.12304 12.3574 5.76587H10.4807V13.3748C10.4804 13.7217 10.3746 14.0597 10.1783 14.3409C9.98208 14.6221 9.70535 14.8322 9.38735 14.9414C9.06935 15.0506 8.72621 15.0535 8.40657 14.9495C8.08693 14.8455 7.807 14.64 7.60646 14.3621C7.40591 14.0842 7.29493 13.748 7.28924 13.4011C7.28355 13.0543 7.38343 12.7144 7.57474 12.4296C7.76605 12.1448 8.03907 11.9295 8.35511 11.8144C8.67116 11.6992 9.01419 11.69 9.33559 11.788V9.89911C8.65255 9.80374 7.95767 9.92641 7.34373 10.2507C6.7298 10.575 6.22603 11.0856 5.89969 11.7141C5.57336 12.3427 5.43999 13.0594 5.51741 13.7685C5.59482 14.4776 5.87932 15.1454 6.33293 15.6827C6.78653 16.22 7.38765 16.6012 8.05601 16.7754C8.72437 16.9497 9.42817 16.9086 10.0734 16.6578C10.7187 16.407 11.2747 15.9583 11.6671 15.3717C12.0596 14.7851 12.2699 14.0885 12.27 13.3748L12.3244 9.52871C13.0955 10.1148 14.0274 10.4302 14.984 10.4287L14.9842 8.48566Z" fill="url(#paint0_linear_564_3048)"/>
<path d="M14.4881 7.95627C13.7915 7.95625 13.1233 7.66969 12.6307 7.15963C12.1381 6.64956 11.8614 5.95778 11.8614 5.23645H9.98476V12.8454C9.98441 13.1923 9.87861 13.5303 9.68238 13.8115C9.48614 14.0927 9.20941 14.3028 8.89141 14.412C8.5734 14.5212 8.23026 14.5241 7.91062 14.4201C7.59098 14.3161 7.31104 14.1106 7.1105 13.8327C6.90995 13.5548 6.79897 13.2186 6.79327 12.8718C6.78757 12.5249 6.88746 12.185 7.07876 11.9002C7.27007 11.6154 7.5431 11.4002 7.85914 11.285C8.17519 11.1698 8.51822 11.1606 8.83962 11.2586V9.36968C8.15658 9.27432 7.4617 9.39698 6.84776 9.7213C6.23383 10.0456 5.73006 10.5561 5.40372 11.1847C5.07739 11.8133 4.94402 12.53 5.02143 13.2391C5.09885 13.9482 5.38335 14.616 5.83696 15.1533C6.29056 15.6906 6.89168 16.0718 7.56004 16.246C8.22841 16.4203 8.9322 16.3792 9.57745 16.1284C10.2227 15.8776 10.7787 15.4289 11.1712 14.8423C11.5637 14.2557 11.774 13.559 11.774 12.8454L11.8288 8.99932C12.5998 9.58542 13.5318 9.90077 14.4883 9.89929L14.4881 7.95627Z" fill="url(#paint1_linear_564_3048)"/>
<path d="M14.4881 8.43702C13.8387 8.30766 13.2604 7.9295 12.8686 7.37803C12.3733 6.97669 12.0336 6.40462 11.9112 5.76587H10.4808V13.3748C10.4808 13.736 10.3666 14.0872 10.1558 14.3748C9.94492 14.6625 9.64895 14.8708 9.31305 14.968C8.97714 15.0651 8.61976 15.0458 8.29543 14.913C7.97111 14.7802 7.69768 14.5411 7.51686 14.2323C7.19533 14.0156 6.95983 13.6864 6.8534 13.3047C6.74697 12.9231 6.77672 12.5145 6.93721 12.1537C7.0977 11.7929 7.37822 11.5039 7.72751 11.3396C8.07679 11.1752 8.47152 11.1465 8.83957 11.2587V9.86866C8.20828 9.87708 7.59183 10.068 7.0598 10.42C6.52776 10.7719 6.10134 11.2709 5.82865 11.8605C5.55596 12.45 5.44787 13.1068 5.51657 13.7566C5.58528 14.4065 5.82804 15.0235 6.21746 15.538C6.71185 15.9651 7.31359 16.2375 7.95214 16.3231C8.59069 16.4088 9.23959 16.3042 9.82278 16.0216C10.406 15.739 10.8993 15.2901 11.2448 14.7276C11.5904 14.1651 11.774 13.5122 11.774 12.8455L11.8287 8.9994C12.5998 9.58549 13.5317 9.90085 14.4882 9.89937L14.4881 8.43702Z" fill="url(#paint2_linear_564_3048)"/>
</g>
<defs>
<linearGradient id="paint0_linear_564_3048" x1="6.24809" y1="15.6056" x2="14.3259" y2="7.80405" gradientUnits="userSpaceOnUse">
<stop stop-color="#B5053C"/>
<stop offset="0.233" stop-color="#C90441"/>
<stop offset="0.737" stop-color="#F0014B"/>
<stop offset="1" stop-color="#FF004F"/>
</linearGradient>
<linearGradient id="paint1_linear_564_3048" x1="5.63582" y1="15.1965" x2="14.1447" y2="6.97861" gradientUnits="userSpaceOnUse">
<stop stop-color="#00B2C9"/>
<stop offset="0.283" stop-color="#00C8D4"/>
<stop offset="0.741" stop-color="#00E6E4"/>
<stop offset="1" stop-color="#00F1EA"/>
</linearGradient>
<linearGradient id="paint2_linear_564_3048" x1="1.02893" y1="20.4881" x2="19.8635" y2="2.29776" gradientUnits="userSpaceOnUse">
<stop stop-color="#DDE3E4"/>
<stop offset="1" stop-color="#FCF7F7"/>
</linearGradient>
<clipPath id="clip0_564_3048">
<rect y="0.577026" width="20" height="20.7083" rx="4" fill="white"/>
</clipPath>
</defs>
</svg>
